# xmcd
#
# Track frame offsets:
#	150
#	18552
#	31500
#	53950
#	81732
#	108275
#	129852
#	170800
#	190175
#	226232
#	255682
#
# Disc length: 3736 seconds
#
# Revision: 5
# Processed by: cddbd v1.5.2PL0 Copyright (c) Steve Scherf et al.
# Submitted via: audiograbber 1.83.01
#
DISCID=8b0e960b
DTITLE=Cuba - I am Time - CD 04: Cubano Jazz
DYEAR=1997
DGENRE=Latin
TTITLE0=Mario Bauza - Mambo
TTITLE1=Chico O Farrill - Descarga Numero Dos
TTITLE2=Irakere - Juana Mil Ciento
TTITLE3=Emiliano Salvador - Nueva Vision
TTITLE4=Cachao - Bemba e Cuchara  Spoon Lips
TTITLE5=Jesus Alemany - Tumbao De Coqueta
TTITLE6=Grup Afro-Cuba - Sobre Un Canto a Eleggua
TTITLE7=Orlando Valle Maraca - Parraga
TTITLE8=Los Terry - El Noticiero
TTITLE9=Gonzalo Rubalcaba - Woody n You
TTITLE10=Steve Coleman n AfroCuba de Matanzas - Montuno
EXTD=
EXTT0=
EXTT1=
EXTT2=
EXTT3=
EXTT4=
EXTT5=
EXTT6=
EXTT7=
EXTT8=
EXTT9=
EXTT10=
PLAYORDER=
